# xmcd
#
# Track frame offsets:
# 150
# 102300
# 141712
# 178725
# 196575
# 226525
#
# Disc length: 3317 seconds
#
# Revision: 0
# Processed by: cddbd v1.5.2PL0 Copyright (c) Steve Scherf et al.
# Submitted via: Audion 3.0.2 (http://www.panic.com/audion/)
#
DISCID=4a0cf306
DTITLE=Bach - Concerto 1043
DYEAR=1900
DGENRE=
TTITLE0=
TTITLE1=
TTITLE2=
TTITLE3=1043-1
TTITLE4=1043-2
TTITLE5=1043-3
EXTD=
EXTT0=
EXTT1=
EXTT2=
EXTT3=
EXTT4=
EXTT5=
PLAYORDER=
